<?xml version="1.0" encoding="UTF-8"?>
<svg width="981px" height="157px" viewBox="0 0 981 157" version="1.1" xmlns="http://www.w3.org/2000/svg" xmlns:xlink="http://www.w3.org/1999/xlink">
    <title>new_tab/Img/logo</title>
    <g id="new_tab/Img/logo" stroke="none" stroke-width="1" fill="none" fill-rule="evenodd">
        <g id="Group-71" transform="translate(16.000000, 32.000000)" fill="#46C2D2">
            <path d="M0.593258427,75.204 L0.4,75.216 C0.384269663,75.168 0.370786517,75.111 0.346067416,75.063 L0.193258427,75.072 L0.186516854,75 L0.139325843,75 L0.146067416,75.072 L0.0921348315,75.078 L0.0853932584,75 L0.0426966292,75.003 L0.0471910112,75.078 C-0.00674157303,75.144 0.0314606742,75.072 0,75.168 C0.271910112,75.345 0.593258427,75.453 1,75.417 C0.916853933,75.276 0.768539326,75.216 0.593258427,75.204" id="Fill-29"></path>
            <polygon id="Fill-30" points="2 95.18 2.201 95.171 2.201 95.09 2.264 95.087 2.258 95 2 95.015"></polygon>
            <polygon id="Fill-33" points="2.201 65 2 65 2.006 65.165 2.204 65.153"></polygon>
            <path d="M88.3462948,98.5395894 L88.3491806,98.9354839 L88.4270969,98.9266862 L88.4357543,99 L88.4905843,98.9970674 C88.4905843,98.5865103 88.5309854,98.3812317 88.4444117,98 L88.0634874,98.0205279 L88.0750305,98.0967742 L88,98.0997067 L88.0086574,98.3255132 L88.2106627,98.313783 C88.2597211,98.5395894 88.3203227,98.4897361 88.3462948,98.5395894" id="Fill-34"></path>
            <path d="M90.8428571,81.9034337 C90.8795918,82 90.8428571,81.9381976 90.8979592,82 C90.9306122,81.8648072 90.9408163,81.530688 91,81.4379844 L90.9816327,81.0768266 L90.9428571,81.0806892 C90.8489796,80.984123 90.7061224,80.9763977 90.5857143,81.0459254 L90.5857143,81.0980711 L90.4938776,81.1000025 L90.4938776,81.1540796 C90.3367347,81.2178133 90.1428571,81.1115904 90.0428571,81.2178133 L90,81.2236073 L90,81.2660964 C90.2897959,81.2776844 90.577551,81.2834784 90.8612245,81.2834784 C90.8489796,81.4630916 90.7530612,81.7933482 90.8428571,81.9034337" id="Fill-35"></path>
            <path d="M92,81.009 C92.045,81.192 92.027,81.165 92.138,81.246 C92.084,81.081 92.138,81.171 92.063,81.081 L92.063,81 L92,81.009 Z" id="Fill-36"></path>
            <path d="M91.76,83 L91.5263158,83.0131868 C91.5094737,83.1230769 91.5389474,83.0571429 91.4905263,83.1274725 C91.5284211,83.3978022 91.6336842,83.4967033 91.7010526,83.6901099 L91.7221053,84.3318681 L91.6778947,84.3318681 L91.6778947,84.4417582 L91.6378947,84.4527473 C91.5915789,84.6879121 91.6231579,84.5142857 91.5094737,84.6307692 L91.4652632,84.7428571 L91.3726316,84.7516484 L91.3789474,84.810989 L91.2778947,84.810989 L91.2778947,84.8703297 L91.0463158,84.8791209 L91.0463158,84.9384615 L91,84.9406593 L91.0105263,85 C91.2442105,84.9802198 91.36,84.9230769 91.5136842,84.8087912 L91.5136842,84.7428571 C91.5726316,84.7164835 91.6336842,84.6989011 91.6905263,84.6747253 C91.7221053,84.6153846 91.7536842,84.5604396 91.7852632,84.4989011 C91.8105263,84.4747253 91.8442105,84.4615385 91.8715789,84.4351648 L91.8652632,84.3230769 L91.9094737,84.3230769 C91.9705263,84.2043956 91.9073684,84.189011 92,84.0901099 C91.9873684,83.7626374 92.0042105,83.3230769 91.8715789,83.1736264 C91.8315789,83.1076923 91.7936842,83.0505495 91.76,83" id="Fill-37"></path>
            <path d="M89.054,90 L89.054,90.075 L89,90.075 L89,90.159 L89.126,90.15 C89.084,89.997 89.144,90.084 89.054,90" id="Fill-38"></path>
            <path d="M9.66742081,99.4240741 L9.61764706,99.4240741 C9.6040724,99.3777778 9.58371041,99.3314815 9.56108597,99.2777778 C9.51357466,99.2685185 9.45927602,99.2537037 9.41628959,99.2425926 L9.39819005,99.0907407 C9.37330317,99.0592593 9.2918552,99.0555556 9.24660633,99 C9.08371041,99.0277778 9.10180995,99.0555556 9,99.1074074 L9.00904977,99.2574074 C9.10859729,99.2833333 9.21040724,99.3111111 9.31447964,99.3388889 C9.41855204,99.4518519 9.52714932,99.5555556 9.63122172,99.6722222 L9.78506787,99.6666667 C9.80542986,99.7166667 9.8280543,99.762963 9.8438914,99.8092593 L9.89366516,99.8037037 L9.90497738,99.9518519 L9.95022624,99.9518519 L9.95248869,100 L10,99.9962963 C9.97963801,99.8555556 9.95248869,99.7092593 9.92760181,99.5611111 C9.7760181,99.5351852 9.75565611,99.5092593 9.66742081,99.4240741" id="Fill-39"></path>
            <path d="M92.43,80.072 L92.43,80 C92.43,80 92.1,80.3 92,80.333 L92.0075,80.492 C92.18,80.42 92.1925,80.333 92.44,80.318 C92.4875,80.222 92.43,80.303 92.5,80.231 C92.455,80.072 92.5,80.162 92.43,80.072" id="Fill-40"></path>
            <path d="M3.051,18 L3,18 L3,18.144 C3.051,18.162 3.117,18.192 3.189,18.21 L3.189,18.066 C3.051,18.027 3.126,18.084 3.051,18" id="Fill-42"></path>
            <path d="M13,32 C13,32 13.009,32.267 13.063,32.141 L13.063,32.066 L13.195,32.066 L13.195,32 L13,32 Z" id="Fill-43"></path>
            <path d="M61.057,37.081 L61,37.081 L61,37.144 L61.186,37.144 L61.186,37 C61.057,37.054 61.129,36.991 61.057,37.081" id="Fill-44"></path>
            <path d="M63.321,36.078 L63.321,36 C63.222,36.051 63.174,36.069 63,36.078 L63,36.291 L63.135,36.291 L63.135,36.141 C63.258,36.189 63.192,36.141 63.258,36.216 L63.447,36.216 C63.405,36.129 63.405,36.129 63.321,36.078" id="Fill-45"></path>
            <polygon id="Fill-46" points="77 33.147 77.192 33.147 77.192 33.075 77.249 33.075 77.249 33 77 33"></polygon>
            <polygon id="Fill-47" points="83 32.066 83.183 32.066 83.183 32 83 32"></polygon>
            <path d="M83.533123,28.0940171 L83.533123,28 C83.3438486,28.0299145 83.1671924,28.0641026 83,28.0940171 C83.0157729,28.2606838 83.0347003,28.4358974 83.0599369,28.6111111 C83.2807571,28.7393162 83.5141956,28.8632479 83.7381703,29 C83.7949527,28.8760684 83.9085174,28.7820513 84,28.6965812 C83.9684543,28.5384615 83.9495268,28.3589744 83.9305994,28.2008547 C83.7949527,28.1581197 83.6687697,28.1196581 83.533123,28.0940171" id="Fill-48"></path>
            <path d="M1.066,20 L1,20 L1,20.5 L1.066,20.5 C1.111,20.3368984 1.069,20.2620321 1.066,20" id="Fill-49"></path>
            <path d="M14.186,33.21 L14.186,33 L14,33 C14.039,33.192 14.018,33.165 14.186,33.21" id="Fill-50"></path>
            <path d="M1.252,20.5 L1.252,20.2578947 L1.186,20.2578947 L1.186,20 C1.102,20.0552632 1.111,20.0421053 1.06,20.1289474 L1,20.1289474 C1.042,20.2578947 1.078,20.3736842 1.126,20.5 L1.252,20.5 Z" id="Fill-51"></path>
            <path d="M7.42014925,29.4844151 C7.37985075,29.4687319 7.33059701,29.4569695 7.28134328,29.4432467 L7.28134328,29.3040584 L7.09104478,29.21388 C6.99925373,29.1060581 7.14477612,29.125662 6.95223881,29.0746917 C6.91865672,28.9374637 6.89626866,28.9198201 6.75522388,28.8904142 L6.75522388,28.796315 L6.66343284,28.796315 C6.60298507,28.5610671 6.51343284,28.6806515 6.43059701,28.5669483 L6.43059701,28.4708888 L6.37686567,28.4708888 C6.29626866,28.3513044 6.43059701,28.3865916 6.23358209,28.3336608 C6.21567164,28.2434825 6.20671642,28.1513437 6.18656716,28.0572446 C6.07910448,28.039601 5.96044776,27.9729474 5.80820896,28.0121554 L5.80820896,28.0572446 C5.73208955,28.039601 5.64701493,28.0219574 5.5641791,28.0121554 L5.5641791,28.0572446 C5.26641791,28.039601 5.06044776,27.9964722 5,28.2434825 C5.30895522,28.2434825 5.3,28.3317004 5.47462687,28.4297204 L5.47462687,28.5238195 C5.3358209,28.5669483 5.1880597,28.6100771 5.04925373,28.6551663 C5.04925373,28.9158993 5.11865672,29.0335233 5.27761194,29.1217412 L5.42089552,29.1217412 L5.42089552,29.1629096 L5.5641791,29.1629096 C5.55298507,29.1217412 5.54179104,29.0746917 5.51716418,29.0237213 L5.5641791,29.0237213 L5.5641791,29.1217412 C5.73208955,29.1374244 5.88656716,29.1491868 6.04104478,29.1629096 C6.06119403,29.194276 6.07238806,29.2315236 6.09477612,29.2570088 L6.37686567,29.2570088 L6.37686567,29.3040584 L6.43059701,29.3040584 L6.43059701,29.2570088 L6.46865672,29.2570088 C6.49328358,29.2864148 6.50223881,29.3177811 6.52014925,29.3471871 L6.61641791,29.3471871 C6.62761194,29.3824743 6.65223881,29.4118803 6.66343284,29.4432467 L6.75522388,29.4432467 C6.86716418,29.5687122 6.98134328,29.6941778 7.09104478,29.8118017 C7.16716418,29.8314057 7.25447761,29.8490493 7.33059701,29.8588513 C7.34402985,29.8941385 7.3641791,29.9235444 7.37985075,29.9549108 C7.52761194,29.9372672 7.66641791,29.9235444 7.80298507,29.9059008 L7.80298507,29.9549108 C7.87238806,29.970594 7.93283582,29.9843168 8,30 L8,29.9059008 C7.96865672,29.8588513 7.53432836,29.6353658 7.42014925,29.6294846 L7.42014925,29.4844151 Z" id="Fill-52"></path>
            <path d="M12.7181208,32.219 L12.7181208,32.138 L12.5704698,32.138 C12.5536913,32.096 12.5234899,32.045 12.5100671,32 L12,32 C12.0771812,32.264 12.2281879,32.237 12.3657718,32.423 L12.7181208,32.423 L12.7181208,32.498 L13,32.498 C12.9765101,32.423 12.9563758,32.357 12.9328859,32.282 C12.8590604,32.258 12.7919463,32.237 12.7181208,32.219" id="Fill-53"></path>
            <path d="M4,25 L4,25.081 L4.126,25.081 C4.045,25 4.126,25.042 4,25" id="Fill-54"></path>
            <path d="M3.066,23.138 L3.066,23 L3,23 C3.03,23.138 2.991,23.057 3.066,23.138" id="Fill-55"></path>
            <path d="M2,17 L2,17.081 L2.138,17.081 C2.072,16.991 2.138,17.045 2,17" id="Fill-56"></path>
            <path d="M4.57364341,29.3807947 C4.62790698,29.1986755 4.59689922,29.2317881 4.74031008,29.1589404 L4.65116279,29 C4.38372093,29 4.29069767,29.0099338 4.15891473,29.1589404 C4,29.1986755 4.09689922,29.1390728 4,29.2284768 C4.08914729,29.2516556 4.15891473,29.2781457 4.25193798,29.3013245 L4.25193798,29.5364238 C4.39147287,29.6059603 4.46511628,29.6589404 4.65116279,29.6887417 L4.65116279,29.9271523 C4.75193798,29.9966887 4.67054264,29.9172185 4.74031008,30 L5,30 C4.8875969,29.7384106 4.81007752,29.513245 4.57364341,29.3807947" id="Fill-57"></path>
            <path d="M2.77835724,22.7290471 C2.75488918,22.6509759 2.73663625,22.5843858 2.72099087,22.5154994 L2.55932203,22.3983927 L2.10821382,21.9138921 L2.00130378,21.9138921 C1.97783572,21.8771527 1.96219035,21.8427095 1.9517601,21.8059701 L1.82920469,21.8059701 C1.77705346,21.7324914 1.72229465,21.6590126 1.66753585,21.5832377 C1.61277705,21.5671642 1.55541069,21.5533869 1.50586701,21.532721 C1.42764016,21.4477612 1.55541069,21.4776119 1.3833116,21.36969 L1.3833116,21.2089552 C1.17470665,21.1515499 1.29986962,21.1446613 1.16688396,21.0482204 L1.16688396,21 C1.1095176,21.0068886 1.05997392,21.0344432 1,21.0482204 C1.01564537,21.1331803 1.03650587,21.2250287 1.05997392,21.3214696 L1.1095176,21.3214696 L1.1095176,21.4270953 C1.18774446,21.4776119 1.26075619,21.532721 1.33116037,21.5832377 C1.36245111,21.6934558 1.31290743,21.6659013 1.27640156,21.695752 C1.28683181,21.989667 1.29986962,21.9047072 1.3833116,22.0815155 C1.60495437,22.0929966 1.56584094,22.1595867 1.66753585,22.0195178 C1.89178618,22.0516648 2.02998696,22.1710677 2.16297262,22.2973594 C2.18644068,22.3295063 2.20990874,22.3685419 2.22033898,22.3983927 C2.27509778,22.423651 2.33767927,22.4374282 2.39243807,22.4557979 L2.39243807,22.5660161 L2.49934811,22.6762342 C2.55932203,22.6877153 2.60886571,22.7129736 2.65840939,22.7290471 C2.79921773,22.8461538 2.7809648,22.9380023 3,23 C2.96349413,22.8622273 2.91134289,22.8208955 2.83311604,22.7290471 L2.77835724,22.7290471 Z" id="Fill-58"></path>
            <path d="M87.3727811,20 C87.2011834,20.0166667 87.1005917,20.0375 87,20.0958333 C87.0147929,20.3208333 87.0325444,20.5666667 87.056213,20.7958333 L87,20.7958333 L87,21 L87.056213,21 C87.1213018,20.7625 87.1893491,20.4958333 87.239645,20.3041667 L87.5,20.3041667 L87.5,20.0958333 C87.3727811,20.05 87.4408284,20.1333333 87.3727811,20" id="Fill-59"></path>
            <path d="M87.7264957,17.1596091 L87.6858974,17.1596091 L87.6858974,17.3713355 C87.4123932,17.4429967 87.2371795,17.7491857 87,17.8403909 L87,18 C87.1025641,17.9771987 87.1175214,17.9967427 87.1816239,17.9218241 L87.1816239,17.8403909 L87.3205128,17.8403909 C87.5491453,17.6807818 87.6495726,17.5276873 88,17.5374593 C88,17.3094463 87.991453,17.1400651 87.9551282,17 C87.8290598,17.019544 87.7863248,17.0260586 87.7264957,17.1596091" id="Fill-60"></path>
            <path d="M87.189,10.4964789 C87.222,10.6971831 87.273,10.8098592 87.375,10.9190141 L87.375,11 L87.444,11 C87.381,10.6373239 87.288,10.3485915 87.189,10.084507 C87.15,10.056338 87.102,10.0316901 87.06,10 L87.06,10.084507 L87,10.084507 C87.006,10.3908451 86.979,10.4260563 87.189,10.4964789" id="Fill-61"></path>
            <path d="M90.129,11 L90,11 L90,11.219 C90.075,11.279 90.009,11.201 90.063,11.279 L90.258,11.279 C90.201,11.156 90.159,11.174 90.129,11" id="Fill-62"></path>
            <path d="M87.396,13 C87.123,13.009 87.057,13.036 87,13.285 C87.135,13.264 87.264,13.243 87.396,13.219 L87.396,13 Z" id="Fill-63"></path>
            <path d="M88.066,20.057 L88,20.057 C88.021,20.177 88.045,20.3 88.066,20.411 L88.126,20.411 C88.165,20.3 88.186,20.183 88.186,20 C88.066,20.03 88.132,19.982 88.066,20.057" id="Fill-64"></path>
            <path d="M6.066,0.072 C6.138,0.006 6.066,0.075 6.126,0 L6,0 C6.039,0.141 5.991,0.057 6.066,0.141 L6.066,0.072 Z" id="Fill-66"></path>
            <path d="M4,15.204 C3.6492891,15.186 3.3507109,15.141 3.18483412,15 L3,15 L3,15.066 C3.30331754,15.162 3.6492891,15.252 4,15.345 L4,15.204 Z" id="Fill-67"></path>
            <path d="M83.138,28.213 L83.138,28 L83,28 C83.045,28.141 82.997,28.06 83.075,28.141 L83.075,28.213 L83.138,28.213 Z" id="Fill-68"></path>
            <polygon id="Fill-69" points="4 23.147 4.138 23.147 4.138 23 4 23"></polygon>
            <path d="M4.177,22.213 C4.177,22.111 4.177,22.213 4.123,22.144 C4.081,22 4.129,22.081 4.051,22 C4.003,22.081 4.066,22.015 4,22.072 C4.003,22.387 4.048,22.396 4.24,22.489 C4.228,22.423 4.204,22.351 4.177,22.279 L4.123,22.279 L4.123,22.213 L4.177,22.213 Z" id="Fill-70"></path>
        </g>
        <g id="header" transform="translate(20.000000, 18.000000)">
            <polygon id="Fill-1" fill="#FFFFFF" points="85.1609436 11.5552995 59.2498908 53.9573696 33.3606594 11.5552995 11.5530412 11.5552995 11.5530412 106.988479 33.3606594 106.988479 33.3606594 51.4950515 58.0288784 91.9883787 60.4907409 91.9883787 85.1609436 51.4950515 85.1609436 106.988479 106.96757 106.988479 106.96757 11.5552995"></polygon>
            <polygon id="Fill-2" fill="#FFFFFF" points="136.461805 11.5552995 136.461805 106.988479 196.401701 106.988479 196.401701 85.9974853 158.260474 85.9974853 158.260474 69.0898095 192.321762 69.0898095 192.321762 48.3646876 158.260474 48.3646876 158.260474 32.5462935 195.736418 32.5462935 195.736418 11.5552995"></polygon>
            <polygon id="Fill-3" fill="#FFFFFF" points="296.376956 11.5552995 270.466172 53.9573696 244.57721 11.5552995 222.769818 11.5552995 222.769818 106.988479 244.57721 106.988479 244.57721 51.4950515 269.246164 91.9883787 271.708001 91.9883787 296.376956 51.4950515 296.376956 106.988479 318.184347 106.988479 318.184347 11.5552995"></polygon>
            <path d="M550.263639,106.868937 L526.799844,106.868937 L508.798793,75.4910668 L498.431093,75.4910668 L498.431093,106.868937 L476.609894,106.868937 L476.609894,11.3622211 L514.791534,11.3622211 C523.892799,11.3622211 531.61746,14.5581889 537.989338,20.9094178 C544.336403,27.2824893 547.533259,35.0098012 547.533259,44.1151819 C547.533259,49.8438971 545.9125,55.2181666 542.693808,60.2141622 C539.453282,65.2111506 535.213303,69.0743102 529.931195,71.8056265 L550.263639,106.868937 Z M514.791534,31.8356761 L498.431093,31.8356761 L498.431093,56.3936949 L514.791534,56.3936949 C517.787905,56.3936949 520.362461,55.2181666 522.49436,52.8422887 C524.647102,50.4882534 525.713052,47.5573752 525.713052,44.1151819 C525.713052,40.651146 524.647102,37.7421104 522.49436,35.3880752 C520.362461,33.0112044 517.787905,31.8356761 514.791534,31.8356761 L514.791534,31.8356761 Z" id="Fill-4" fill="#FFFFFF"></path>
            <polygon id="Fill-6" fill="#FFFFFF" points="573.194359 106.868143 595.015559 106.868143 595.015559 11.3614269 573.194359 11.3614269"></polygon>
            <path d="M707.55999,106.868937 L683.675373,106.868937 L678.90242,91.8581152 L643.452151,91.8581152 L638.68019,106.868937 L614.817409,106.868937 L647.270315,11.3622211 L675.084256,11.3622211 L707.55999,106.868937 Z M661.188203,36.343192 L649.999702,71.40551 L672.375712,71.40551 L661.188203,36.343192 Z" id="Fill-8" fill="#FFFFFF"></path>
            <polygon id="Fill-9" fill="#FFFFFF" points="800.881597 11.3614269 822.701804 11.3614269 822.701804 106.868143 800.881597 106.868143 800.881597 51.3313773 776.197022 91.8573209 773.732634 91.8573209 749.048059 51.3313773 749.048059 106.868143 727.227852 106.868143 727.227852 11.3614269 749.048059 11.3614269 774.97525 53.7966112"></polygon>
            <path d="M847.114433,53.0535661 C847.114433,54.8079231 846.47923,56.3081117 845.229667,57.5700176 C843.969187,58.8299378 842.466535,59.4554301 840.714765,59.4554301 C838.96101,59.4554301 837.458359,58.8299378 836.198871,57.5700176 C834.949308,56.3081117 834.314105,54.8079231 834.314105,53.0535661 C834.314105,51.3101304 834.949308,49.7970348 836.198871,48.5480359 C837.458359,47.28613 838.96101,46.6616306 840.714765,46.6616306 C842.466535,46.6616306 843.969187,47.28613 845.229667,48.5480359 C846.47923,49.7970348 847.114433,51.3101304 847.114433,53.0535661" id="Fill-11" fill="#FFFFFF "></path>
            <polygon id="Fill-12" fill="#FFFFFF " points="846.949677 11.3614269 881.964237 11.3614269 881.964237 21.7326848 869.843774 21.7326848 869.843774 58.5126246 859.07014 58.5126246 859.07014 21.7326848 846.949677 21.7326848"></polygon>
            <polygon id="Fill-13" fill="#FFFFFF " points="918.941176 58.5133195 905.209879 58.5133195 889.854845 11.3621219 901.635871 11.3621219 912.080986 46.0471588 922.514192 11.3621219 934.295218 11.3621219"></polygon>
            <g id="pulse" transform="translate(309.349668, -28.916577)" fill="#FFFFFF   ">
                <path d="M117.678598,38.3024194 C121.472837,40.6255398 125.075197,43.3856354 128.428539,46.7059246 C139.593512,57.7595302 145.174795,71.4091404 145.174795,87.6030634 C145.174795,103.822832 139.593512,117.472442 128.428539,128.526649 C125.099859,131.821694 121.525768,134.566161 117.764612,136.878463 L117.764612,136.878463 L105.146425,116.233645 C114.778184,110.325766 121.260508,99.7968914 121.260508,87.6763935 C121.260508,75.4945867 114.707809,64.9278446 104.996051,59.0379978 L104.996051,59.0379978 Z M57.6090356,38.3090912 L70.2807564,59.0434675 C60.5744119,64.9345164 54.0265241,75.4988543 54.0265241,87.6764536 C54.0265241,99.801159 60.5142623,110.331236 70.1508333,116.239716 L70.1508333,116.239716 L57.5290366,136.875517 C53.7678807,134.563216 50.1931887,131.81995 46.8584937,128.526709 C35.6941223,117.473104 30.1122374,103.823493 30.1122374,87.6031235 C30.1122374,71.4092005 35.6941223,57.7595903 46.8584937,46.7059847 C50.2172485,43.3880998 53.8184064,40.6310096 57.6090356,38.3090912 L57.6090356,38.3090912 Z M87.7448383,72.9571861 C91.7634345,72.9571861 95.2045944,74.3883245 98.0929792,77.274644 C100.956703,80.1363197 102.413527,83.5996626 102.413527,87.5907415 C102.413527,91.6070652 100.956703,95.0451634 98.0929792,97.9320839 C95.2045944,100.819004 91.7634345,102.249542 87.7448383,102.249542 C83.7256405,102.249542 80.2844807,100.819004 77.3960958,97.9320839 C74.5323723,95.0451634 73.0755485,91.6070652 73.0755485,87.5907415 C73.0755485,83.5996626 74.5323723,80.1363197 77.3960958,77.274644 C80.2844807,74.3883245 83.7256405,72.9571861 87.7448383,72.9571861 Z" id="Combined-Shape"></path>
            </g>
        </g>
    </g>
</svg>
